<!-- Generator: Adobe Illustrator 18.0.0, SVG Export Plug-In  -->
<svg version="1.1"
	 xmlns="http://www.w3.org/2000/svg" xmlns:xlink="http://www.w3.org/1999/xlink" xmlns:a="http://ns.adobe.com/AdobeSVGViewerExtensions/3.0/"
	 x="0px" y="0px" width="30px" height="32px" viewBox="0 0 30 32" enable-background="new 0 0 30 32" xml:space="preserve">
<defs>
</defs>
<g>
	<rect x="12" y="7" fill="#282828" width="2" height="2"/>
	<path fill="#282828" d="M29,19.9c0-0.1,0-0.3,0-0.4V16c0.6,0,1-0.4,1-1c0-0.6-0.4-1-1-1v-2c0-1.1-0.9-2-2-2c0,0-4.8,0-5,0V5
		c0-1.1-0.9-2-2-2h-2c0-1.7-1.3-3-3-3s-3,1.3-3,3h-2C8.9,3,8,3.9,8,5v5c-0.2,0-5,0-5,0c-1.1,0-2,0.9-2,2v2h0c-0.6,0-1,0.4-1,1
		c0,0.6,0.4,1,1,1h0v3.5c0,0.1,0,0.3,0,0.4c-0.7,0.9-1,1.9-1,3.1c0,1.3,0.5,2.6,1.5,3.5c0.4,0.4,0.9,0.6,1.4,0.6
		c0.5,0,1-0.2,1.4-0.6L5,25.8l0.6,0.6C4.6,27.3,4,28.6,4,30c0,1.1,0.9,2,2,2h8c0.4,0,0.7-0.1,1-0.3c0.3,0.2,0.6,0.3,1,0.3h8
		c1.1,0,2-0.9,2-2c0-1.4-0.6-2.7-1.6-3.6l0.6-0.6l0.7,0.7c0.4,0.4,0.9,0.6,1.4,0.6c0.5,0,1-0.2,1.4-0.6c0.9-0.9,1.5-2.2,1.5-3.5
		C30,21.9,29.6,20.8,29,19.9z M10,5h4.5V3.8C14.2,3.7,14,3.4,14,3c0-0.6,0.4-1,1-1s1,0.4,1,1c0,0.4-0.2,0.7-0.5,0.8V5H20v6H10V5z
		 M5.7,23.7C5.9,23.5,6,23.2,6,23c0-0.3-0.1-0.5-0.3-0.7C5.5,22.1,5.3,22,5,22s-0.5,0.1-0.7,0.3C4.1,22.5,4,22.7,4,23
		c0,0.3,0.1,0.5,0.3,0.7l-1.4,1.4C2.3,24.5,2,23.8,2,23c0-0.8,0.3-1.6,0.9-2.1C3.4,20.3,4.2,20,5,20c0.8,0,1.6,0.3,2.1,0.8
		C7.7,21.4,8,22.2,8,23c0,0.8-0.3,1.6-0.9,2.1L5.7,23.7z M14,30H6c0-1.7,1.3-3,3-3h5V30z M14,26H9v-1h5V26z M14,24H9v-1h5V24z
		 M8.9,22c-0.2-0.6-0.4-1.2-0.9-1.6V16H7v3.5C6.4,19.2,5.7,19,5,19c-0.7,0-1.4,0.2-2,0.5V12h4v2h1v-2h14v2h1v-2h4v7.5
		c-0.6-0.3-1.3-0.5-2-0.5s-1.4,0.2-2,0.5V16h-1v4.4c-0.4,0.5-0.7,1-0.9,1.6H8.9z M16,24v-1h5v1H16z M21,25v1h-5v-1H21z M16,30v-3h5
		c1.7,0,3,1.3,3,3H16z M27.1,25.1l-1.4-1.4c0.2-0.2,0.3-0.4,0.3-0.7c0-0.3-0.1-0.5-0.3-0.7C25.5,22.1,25.3,22,25,22
		s-0.5,0.1-0.7,0.3C24.1,22.5,24,22.7,24,23c0,0.3,0.1,0.5,0.3,0.7l-1.4,1.4C22.3,24.5,22,23.8,22,23c0-0.8,0.3-1.6,0.9-2.1
		c0.6-0.6,1.3-0.8,2.1-0.8c0.8,0,1.6,0.3,2.1,0.8c0.6,0.6,0.9,1.3,0.9,2.1C28,23.8,27.7,24.5,27.1,25.1z"/>
	<rect x="16" y="7" fill="#282828" width="2" height="2"/>
</g>
</svg>
